<?xml version="1.0" encoding="utf-8"?>
<!-- Generator: Adobe Illustrator 16.0.0, SVG Export Plug-In . SVG Version: 6.00 Build 0)  -->
<!DOCTYPE svg PUBLIC "-//W3C//DTD SVG 1.1//EN" "http://www.w3.org/Graphics/SVG/1.1/DTD/svg11.dtd">
<svg version="1.1" xmlns="http://www.w3.org/2000/svg" xmlns:xlink="http://www.w3.org/1999/xlink" x="0px" y="0px"
	 width="249.024px" height="230.097px" viewBox="0 0 249.024 230.097" enable-background="new 0 0 249.024 230.097"
	 xml:space="preserve">
<g id="Laag_1" display="none">
	<rect x="-300.808" y="-835.77" display="inline" fill="#2E475C" width="841.89" height="1190.55"/>
</g>
<g id="Laag_2">
	<circle fill="#EB683F" cx="123.252" cy="-350.088" r="92.062"/>
	<circle fill="#FFFFFF" cx="121.25" cy="102.068" r="92.062"/>
	<circle fill="#EB683F" cx="-330.727" cy="92.849" r="92.062"/>
</g>
<g id="Laag_3">
	<path fill="#B2542F" d="M99.183,57.613c0,0-4.756-6.634-14.356-8.881c-9.601-2.248-13.794,1.813-14.137,5.561
		c-0.342,3.745-0.917,13.176,3.91,14.984c2.339,0.875,3.326-6.051,6.755-9.045c3.428-2.993,9.156-0.582,11.264,2.707
		C94.726,66.23,99.183,57.613,99.183,57.613z"/>
	<path fill="#B2542F" d="M159.924,137.5c-5.371-20.478,1.202-42.911,1.202-42.911s-35.651-11-47.024-10.868
		c-11.375,0.132-33.32,11.682-25.166,25.729c8.155,14.047,20.337,17.29,20.048,32.699c-0.289,15.408-7.145,18.95-22.502,27.997
		c-4.576,2.695-8.692,6.664-12.289,11.056c13.771,8.207,29.863,12.927,47.058,12.927c27.513,0,52.202-12.073,69.072-31.205
		C177.261,152.704,165.247,157.8,159.924,137.5z"/>
	<path fill="#B2542F" d="M90.512,61.698c8.305-9.302,18.646-15.193,36.178-12.165c17.535,3.026,34.296,10.771,37.93,22.276
		s-4.844,35.125-18.166,44.814c-13.323,9.688-21.68,9.413-38.03,4.569c-10.157-3.01-20.448-18.693-23.159-34.209
		C83.611,77.522,84.776,68.122,90.512,61.698z"/>
	<path opacity="0.2" fill="#8F4124" d="M85.548,88.439c0,0,32.348,3.049,48.314,6.325c8.177,1.678,13.175-17.499,7.758-30.147
		c-5.161-12.051-20.31-17.623-30.187-15.35C90.432,54.101,81.643,67.685,85.548,88.439z"/>
	<path opacity="0.2" fill="#8F4124" d="M108.967,140.6c0,0,10.86,8.431,29.202,4.37c18.343-4.061,31.399,35.849,22.686,40.652
		s-35.061,10.412-54.768,7.225c-19.708-3.188-32.847-12.215-32.847-12.215s16.323-13.769,27.653-19.762
		C109.613,156.258,108.967,140.6,108.967,140.6z"/>
	<path fill="#8F4124" d="M101-393.814c0,0-1.511-4.194-7.868-0.429c-6.357,3.765-7.158,5.564-9.988,8.1
		c-2.83,2.537,2.754,17.097,7.73,18.329c4.976,1.233,9.467,4.241,10.628-7.572C102.664-387.199,101-393.814,101-393.814z"/>
	<path fill="#B2542F" d="M157.268-263.325c15.195-3.723,37.961-13.474,39.532-14.879c-0.878-0.72-17.039-15.599-17.828-16.031
		c-32.52-17.822-6.709-56.468-18.53-83.283c-11.82-26.814-38.557-24.74-50.115-21.938c-11.558,2.803-16.076,14.842-18.287,31.236
		c-17.767,0.069-35.053-11.924-35.053-11.924c-2.646,28.999,24.118,41.34,36.281,46.781c4.334,23.828,29.984,27.413,29.984,27.413
		s-11.541,10.27-21.337,17.425c-3.44,2.513-15.254,15.641-22.886,19.196C89.15-263.951,110.065-251.759,157.268-263.325z"/>
	<circle fill="#1D1D1B" cx="60.647" cy="-377.186" r="7.822"/>
	<path fill="#1D1D1B" d="M122.174-371.15c-0.245,3.338-3.15,5.848-6.489,5.603l0,0c-3.338-0.245-5.848-3.15-5.603-6.489l0.302-4.123
		c0.245-3.339,3.15-5.848,6.489-5.604l0,0c3.338,0.245,5.848,3.15,5.603,6.489L122.174-371.15z"/>
	<path fill="#1D1D1B" d="M107.509-373.032c-0.2,2.731-2.578,4.784-5.309,4.584l0,0c-2.731-0.2-4.785-2.578-4.585-5.309l0.247-3.374
		c0.2-2.731,2.578-4.784,5.31-4.584l0,0c2.731,0.2,4.785,2.577,4.584,5.309L107.509-373.032z"/>
	<path fill="#8F4124" d="M99.547-332.242c0,0,11.999,3.963,22.91,2.876c15.145-1.507,24.202-15.028,24.202-15.028
		s4.44,34.127-20.993,32.262C111.223-313.19,103.792-322.335,99.547-332.242z"/>
	<path fill="#8F4124" d="M147.555-391.106c4.946-4.423,17.076,2.493,25.643,8.225c5.136,3.436,1.996,18.412-4.934,26.562
		c-6.932,8.148-12.641,0.845-12.503-6.292C155.905-370.072,142.611-386.682,147.555-391.106z"/>
	
		<ellipse transform="matrix(0.9973 0.0731 -0.0731 0.9973 -27.5964 -5.4609)" fill="#C6C6C5" cx="60.851" cy="-379.967" rx="3.232" ry="2.788"/>
	<path fill="#3C3C3B" d="M106.566-376.521c-0.087,1.191-1.125,2.086-2.314,1.999l0,0c-1.191-0.087-2.086-1.124-1.999-2.314
		l0.107-1.471c0.087-1.19,1.124-2.085,2.315-1.998l0,0c1.189,0.087,2.085,1.124,1.999,2.314L106.566-376.521z"/>
	<path fill="#3C3C3B" d="M120.718-373.379c-0.127,1.745-1.646,3.055-3.388,2.927l0,0c-1.744-0.127-3.055-1.646-2.927-3.39
		l0.158-2.153c0.127-1.743,1.646-3.054,3.39-2.926l0,0c1.743,0.127,3.054,1.646,2.926,3.388L120.718-373.379z"/>
	<path fill="#8F4124" d="M113.872-298.28c0,0-2.7-0.763-5.651,1.384c-2.951,2.147-13.2,10.376-7.735,21.573
		c3.193,6.543,12.296,16.801,15.366,24.76c3.069,7.96,8.534,5.773,8.534,5.773s8.703,7.299,8.131,3.389
		c-0.572-3.91-1.062-11.896-7.181-22.228c-6.119-10.332-18.472-26.492-15.442-29.708C112.922-296.552,113.872-298.28,113.872-298.28
		z"/>
	<path fill="#8F4124" d="M166.392-305.822c0,0,3.449-0.899,6.457,2.047c3.006,2.946,11.195,11.189,3.075,23.05
		c-4.745,6.931-26.468,15.452-31.31,24.019c-4.841,8.569-8.585,8.027-8.585,8.027s-1.551,8.523-0.239,4.156
		c1.311-4.366-6.399-15.053,2.322-25.816c8.72-10.763,34.447-24.854,31.531-29.034C166.727-303.552,166.392-305.822,166.392-305.822
		z"/>
	<circle fill="#E59B1A" cx="131.188" cy="-255.029" r="18.841"/>
	<path fill="#853D20" d="M111.735-316.648c3.729,2.444,8.29,4.103,13.931,4.517c10.392,0.762,15.793-4.486,18.552-10.958
		c-4.854-3.164-11.8-4.102-17.146-3.281C121.203-325.468,115.244-321.49,111.735-316.648z"/>
	<path fill="#B2542F" d="M62.775,86.426c-9.896,6.923,13.264,36.842,39.82,39.396c26.554,2.555,40.699-8.633,26.303-23.479
		C114.504,87.5,99.125,89.64,99.125,89.64l-13.577-1.2L62.775,86.426z"/>
	<path fill="#1D1D1B" d="M69.324,87.03c-0.337,4.595-4.333,8.047-8.926,7.712c-4.592-0.335-8.043-4.332-7.707-8.925
		c0.335-4.592,4.333-8.046,8.926-7.71C66.209,78.442,69.661,82.44,69.324,87.03z"/>
	<path fill="#B2542F" d="M143.898,60.898c0,0,12.526-9.055,18.657-12.45c6.129-3.396,15.425-1.697,18.523,6.226
		c3.098,7.921-0.518,16.979-3.099,17.543c-2.582,0.564-6.198-9.579-9.812-12.712c-3.614-3.135-14.203,1.777-11.735,5.244
		c2.468,3.465,3.474,17.153-5.82,17.687c-9.295,0.534-6.714-23.236-6.714-23.236"/>
	<path fill="#B2542F" d="M93.635,119.6c0,0,2.896,20.597,23.838,23.481c20.94,2.884,23.824-26.635,22.589-33.092
		C138.825,103.532,93.635,119.6,93.635,119.6z"/>
	<path fill="#6B311B" d="M98.854,119.357c0,0,4.3,2.821,7.776,6.83c4.439,5.118,9.005,11.599,17.412,10.427
		c9.531-1.328,9.897-12.635,11.585-18.166c1.863-6.106,5.993-13.232,5.993-13.232c-4.317,4.872-10.447,11.233-19.031,13.554
		C111.235,121.84,98.854,119.357,98.854,119.357z"/>
	<path fill="#B21905" d="M164.059,147.215c0,0,0.424,13.505-22.555,35.207c-22.978,21.702-3.574,12.044,0,9.469
		s7.192,4.37,7.192,4.37s20.849-13.016,29.097-39.969c1.642-5.365-7.693-9.077-7.693-9.077S164.485,144.141,164.059,147.215z"/>
	<path fill="#B21905" d="M118.136,180.086c0,0-11.452-16.409-14.29-22.072c-1.352-2.697-4.925-0.265-8.787,3.085
		c-3.401,2.95-4.744,4.871-3.353,7.534c3.094,5.925,9.214,15.244,21.414,22.51C125.319,198.408,118.136,180.086,118.136,180.086z"/>
	<circle fill="#E59B1A" cx="128.511" cy="198.551" r="23.141"/>
	<g opacity="0.2">
		<path fill="#FFFFFF" d="M129.699,204.88h-4.379v-2.364c0-1.034,0.123-1.802,0.368-2.305c0.245-0.504,0.781-1.169,1.607-1.995
			l2.829-2.83c0.594-0.646,0.892-1.445,0.892-2.402c0-0.955-0.31-1.75-0.93-2.383c-0.621-0.633-1.422-0.949-2.402-0.949
			c-0.983,0-1.802,0.305-2.461,0.912c-0.659,0.605-1.04,1.412-1.143,2.42h-4.688c0.258-2.298,1.155-4.101,2.69-5.405
			c1.538-1.304,3.455-1.956,5.754-1.956s4.172,0.627,5.619,1.879c1.446,1.254,2.17,3.004,2.17,5.25c0,1.551-0.427,2.842-1.279,3.874
			c-0.491,0.621-0.865,1.061-1.123,1.318c-0.259,0.259-0.601,0.587-1.026,0.987c-0.427,0.402-0.788,0.751-1.086,1.047
			c-0.296,0.297-0.535,0.549-0.717,0.756c-0.464,0.568-0.696,1.369-0.696,2.401V204.88z M127.588,213.481
			c-0.814,0-1.518-0.278-2.112-0.834c-0.594-0.556-0.893-1.227-0.893-2.014s0.292-1.467,0.873-2.035
			c0.581-0.567,1.277-0.852,2.093-0.852c0.813,0,1.517,0.275,2.111,0.832c0.594,0.557,0.891,1.228,0.891,2.015
			c0,0.79-0.29,1.466-0.871,2.036C129.098,213.197,128.4,213.481,127.588,213.481z"/>
	</g>
	<path fill="#B2542F" d="M-292.053,128.28c-5.371-20.478,1.202-42.911,1.202-42.911s-35.651-11-47.025-10.868
		c-11.375,0.132-33.32,11.682-25.166,25.729c8.155,14.047,20.337,17.29,20.048,32.699c-0.289,15.408-7.145,18.95-22.502,27.997
		c-4.576,2.695-8.692,6.664-12.289,11.056c13.771,8.207,29.863,12.927,47.059,12.927c27.513,0,52.202-12.073,69.072-31.205
		C-274.716,143.484-286.729,148.58-292.053,128.28z"/>
	<path opacity="0.2" fill="#8F4124" d="M-343.01,131.38c0,0,10.86,8.431,29.203,4.37s31.399,35.849,22.686,40.652
		s-35.061,10.412-54.769,7.225c-19.708-3.188-32.847-12.215-32.847-12.215s16.323-13.769,27.653-19.762
		C-342.364,147.038-343.01,131.38-343.01,131.38z"/>
	<path fill="#B2542F" d="M-361.465,52.479c8.305-9.302,18.646-15.193,36.179-12.165c17.535,3.026,34.296,10.771,37.93,22.276
		s-4.844,35.125-18.166,44.814c-13.323,9.688-21.68,9.413-38.031,4.569C-359.904,107.129-376.604,69.435-361.465,52.479z"/>
	<path fill="#B2542F" d="M-389.203,77.206c-9.896,6.923,13.264,36.842,39.82,39.396c26.555,2.555,40.7-8.633,26.304-23.479
		c-14.395-14.844-29.774-12.704-29.774-12.704L-389.203,77.206z"/>
	<path fill="#1D1D1B" d="M-382.654,77.811c-0.337,4.595-4.333,8.047-8.926,7.712c-4.592-0.335-8.043-4.332-7.707-8.925
		c0.335-4.592,4.333-8.046,8.926-7.71C-385.769,69.223-382.317,73.221-382.654,77.811z"/>
	<path fill="#B2542F" d="M-308.078,51.679c0,0,12.526-9.055,18.657-12.45c6.129-3.396,15.425-1.697,18.523,6.226
		c3.098,7.921-0.518,16.979-3.099,17.543c-2.582,0.564-6.198-9.579-9.812-12.712c-3.614-3.135-14.203,1.777-11.735,5.244
		c2.468,3.465,3.474,17.153-5.82,17.687c-9.295,0.534-6.714-23.236-6.714-23.236"/>
	<path fill="#1D1D1B" d="M-347.208,74.629c-0.26,3.566-3.362,6.241-6.922,5.976l0,0c-3.563-0.263-6.242-3.365-5.98-6.929l0.32-4.397
		c0.261-3.561,3.364-6.233,6.926-5.971l0,0c3.562,0.262,6.239,3.366,5.979,6.925L-347.208,74.629z"/>
	<path fill="#1D1D1B" d="M-327.889,76.244c-0.296,4.036-3.805,7.067-7.835,6.771l0,0c-4.033-0.293-7.064-3.805-6.768-7.84
		l0.363-4.977c0.295-4.03,3.806-7.059,7.838-6.764l0,0c4.031,0.293,7.061,3.805,6.766,7.835L-327.889,76.244z"/>
	<path fill="#B2542F" d="M-352.795,48.394c0,0-4.756-6.634-14.356-8.881c-9.601-2.248-13.794,1.813-14.137,5.561
		c-0.342,3.745-0.917,13.176,3.91,14.984c2.339,0.875,3.326-6.051,6.755-9.045c3.428-2.993,9.156-0.582,11.264,2.707
		C-357.252,57.011-352.795,48.394-352.795,48.394z"/>
	<path fill="#B2542F" d="M-358.343,110.38c0,0,2.896,20.597,23.838,23.481c20.941,2.884,23.825-26.635,22.59-33.092
		C-313.151,94.312-358.343,110.38-358.343,110.38z"/>
	<path fill="#8F4124" d="M-353.124,110.138c0,0,4.3,2.821,7.776,6.83c4.439,5.118,9.005,11.599,17.413,10.427
		c9.531-1.328,9.897-12.635,11.585-18.166c1.863-6.106,5.993-13.232,5.993-13.232c-4.317,4.872-10.447,11.233-19.031,13.554
		C-340.743,112.62-353.124,110.138-353.124,110.138z"/>
	<path fill="#B21905" d="M-287.918,137.995c0,0,0.424,13.505-22.555,35.207s-3.574,12.044,0,9.469s7.192,4.37,7.192,4.37
		s20.849-13.016,29.097-39.969c1.642-5.365-7.693-9.077-7.693-9.077S-287.491,134.921-287.918,137.995z"/>
	<path fill="#B21905" d="M-333.841,170.866c0,0-11.452-16.409-14.29-22.072c-1.352-2.697-4.925-0.265-8.787,3.085
		c-3.401,2.95-4.744,4.871-3.353,7.534c3.094,5.925,9.214,15.244,21.414,22.51S-333.841,170.866-333.841,170.866z"/>
	<circle fill="#E59B1A" cx="-323.466" cy="189.331" r="23.142"/>
	<g opacity="0.2">
		<path fill="#FFFFFF" d="M-322.277,195.66h-4.379v-2.364c0-1.034,0.123-1.802,0.368-2.305c0.245-0.504,0.781-1.169,1.607-1.995
			l2.829-2.83c0.594-0.646,0.892-1.445,0.892-2.402c0-0.955-0.31-1.75-0.93-2.383c-0.621-0.633-1.422-0.949-2.402-0.949
			c-0.983,0-1.802,0.305-2.461,0.912c-0.659,0.605-1.04,1.412-1.143,2.42h-4.688c0.258-2.298,1.155-4.101,2.691-5.405
			c1.538-1.304,3.455-1.956,5.754-1.956s4.172,0.627,5.619,1.879c1.446,1.254,2.17,3.004,2.17,5.25c0,1.551-0.427,2.842-1.279,3.874
			c-0.491,0.621-0.865,1.061-1.123,1.318c-0.259,0.259-0.601,0.587-1.026,0.987c-0.427,0.402-0.788,0.751-1.086,1.047
			c-0.296,0.297-0.535,0.549-0.717,0.756c-0.464,0.568-0.696,1.369-0.696,2.401V195.66z M-324.389,204.262
			c-0.814,0-1.518-0.278-2.112-0.834c-0.594-0.556-0.893-1.227-0.893-2.014s0.292-1.467,0.873-2.035
			c0.581-0.567,1.277-0.852,2.093-0.852c0.813,0,1.517,0.275,2.111,0.832c0.594,0.557,0.891,1.228,0.891,2.015
			c0,0.79-0.29,1.466-0.871,2.036C-322.879,203.978-323.576,204.262-324.389,204.262z"/>
	</g>
	<path fill="#8F4124" d="M109.965,80.8c0,0-0.694-8.842,7.777-9.046c8.47-0.203,8.732,6.278,8.687,9.304
		C126.389,83.72,109.965,80.8,109.965,80.8z"/>
	<path fill="#1D1D1B" d="M126.452,83.05c-0.338,4.595-4.334,8.047-8.925,7.712c-4.592-0.335-8.044-4.332-7.707-8.925
		c0.335-4.592,4.333-8.046,8.926-7.71C123.337,74.462,126.788,78.46,126.452,83.05z"/>
	<path fill="#8F4124" d="M100.161,74.815c-1.562,0.17-5.2,1.177-5.072,6.357s11.954,3.061,11.888,0S104.478,74.345,100.161,74.815z"
		/>
	<circle fill="#1D1D1B" cx="101.1" cy="82.444" r="6.011"/>
	<path fill="#811905" d="M120.237,136.616c0,0,7.625-16.075,20.53-10.664c8.41,3.526,12.937,9.638,10.084,16.441
		c-2.185,5.208-10.983,3.241-14.845-3.674c-3.121-5.59-4.952-5.298-7.583-3.748C124.166,137.479,120.237,136.616,120.237,136.616z"
		/>
</g>
<g id="FUN" display="none">
	<path display="inline" fill="#FFFFFF" d="M139.323,102.007c0,0,24.467,6.517,32.92,10.004c8.452,3.487-10.385,9.096-10.385,9.096
		l-25.221-19.1H139.323z"/>
	<path display="inline" fill="none" stroke="#E6E6E6" stroke-miterlimit="10" d="M167.166,110.158c0,0-16.198-2.275-20.513-3.055
		s-3.285,0-3.285,0"/>
	
		<radialGradient id="SVGID_1_" cx="18.3662" cy="116.8379" r="5.6453" gradientTransform="matrix(-1 0 0 1 185.8105 0)" gradientUnits="userSpaceOnUse">
		<stop  offset="0" style="stop-color:#E95A0C"/>
		<stop  offset="1" style="stop-color:#000000"/>
	</radialGradient>
	<path display="inline" fill="url(#SVGID_1_)" d="M161.152,119.399c0.874,2.145,4.398,2.735,7.873,1.32
		c3.475-1.414,5.584-4.3,4.711-6.443c-0.874-2.144-4.398-2.734-7.873-1.32C162.39,114.371,160.279,117.256,161.152,119.399z"/>
	<path display="inline" fill="#1D1D1B" d="M128.454,73.04c-0.338,4.595-4.334,8.047-8.926,7.712s-8.044-4.332-7.707-8.925
		c0.335-4.592,4.333-8.046,8.926-7.71C125.339,64.452,128.79,68.45,128.454,73.04z"/>
	<circle display="inline" fill="#1D1D1B" cx="103.101" cy="72.434" r="6.011"/>
	<path display="inline" fill="#B2542F" d="M111.249,71.935c0,0,8.37,4.903,16.244,4.903c1.556,0,4.372-11.708-6.027-13.059
		C112.375,62.599,111.249,71.935,111.249,71.935z"/>
	<path display="inline" fill="#B2542F" d="M109.042,70.389c0,0-6.372,3.063-12.091,2.595c-1.13-0.093-2.479-8.766,5.156-9.127
		C108.78,63.54,109.042,70.389,109.042,70.389z"/>
</g>
</svg>
