<?xml version="1.0" encoding="utf-8"?>
<!-- Generator: Adobe Illustrator 16.0.4, SVG Export Plug-In . SVG Version: 6.00 Build 0)  -->
<!DOCTYPE svg PUBLIC "-//W3C//DTD SVG 1.1//EN" "http://www.w3.org/Graphics/SVG/1.1/DTD/svg11.dtd">
<svg version="1.1" id="Laag_1" xmlns="http://www.w3.org/2000/svg" xmlns:xlink="http://www.w3.org/1999/xlink" x="0px" y="0px"
	 width="128px" height="128px" viewBox="0 0 128 128" enable-background="new 0 0 128 128" xml:space="preserve">
<rect fill="#FCC13D" width="128" height="128"/>
<g id="Laag_2">
	<polygon points="88.218,42.007 94.394,54.542 108.23,56.549 98.223,66.311 100.585,80.082 88.218,73.578 75.841,80.082 
		78.207,66.311 68.195,56.549 82.031,54.542 	"/>
</g>
<g id="Laag_3" display="none">
</g>
<path d="M62.891,62.105c0,4.039-1.03,7.679-3.092,10.911c-2.062,3.225-4.833,5.637-8.323,7.231c0.333,0.557,0.865,1.033,1.589,1.418
	c0.719,0.392,1.474,0.588,2.251,0.588c0.785,0,1.539-0.12,2.283-0.364c0.744-0.241,1.339-0.527,1.782-0.863
	c0.969-0.778,1.65-1.537,2.058-2.279l4.511,5.399c-3.194,3.374-7.182,5.065-11.969,5.065c-2.227,0-4.416-0.614-6.57-1.841
	c-2.149-1.222-3.803-2.949-4.951-5.171c-5.753,0-10.595-1.925-14.529-5.764c-3.933-3.842-5.9-8.62-5.9-14.331
	c0-5.716,1.967-10.498,5.9-14.337c3.935-3.84,8.776-5.761,14.529-5.761c5.753,0,10.594,1.921,14.527,5.761
	C60.922,51.607,62.891,56.39,62.891,62.105z M54.037,62.126c0-3.466-1.114-6.429-3.336-8.875c-2.231-2.448-4.968-3.672-8.215-3.672
	c-3.247,0-5.98,1.224-8.21,3.672c-2.225,2.447-3.338,5.41-3.338,8.875c0,3.475,1.113,6.428,3.338,8.854
	c2.229,2.434,4.963,3.647,8.21,3.647c3.248,0,5.984-1.214,8.215-3.647C52.923,68.554,54.037,65.601,54.037,62.126z"/>
</svg>
