<?xml version="1.0" encoding="utf-8"?>
<!-- Generator: Adobe Illustrator 16.0.4, SVG Export Plug-In . SVG Version: 6.00 Build 0)  -->
<!DOCTYPE svg PUBLIC "-//W3C//DTD SVG 1.1//EN" "http://www.w3.org/Graphics/SVG/1.1/DTD/svg11.dtd">
<svg version="1.1" id="Laag_1" xmlns="http://www.w3.org/2000/svg" xmlns:xlink="http://www.w3.org/1999/xlink" x="0px" y="0px"
	 width="128px" height="128px" viewBox="0 0 128 128" enable-background="new 0 0 128 128" xml:space="preserve">
<g id="Laag_3" display="none">
</g>
<rect fill="#FCC13D" width="128" height="128"/>
<path d="M101.748,57.001c0,8.067-2.057,15.337-6.173,21.792c-4.12,6.44-9.656,11.258-16.625,14.443
	c0.666,1.112,1.728,2.063,3.174,2.832c1.436,0.781,2.944,1.174,4.496,1.174c1.566,0,3.073-0.239,4.56-0.728
	c1.484-0.481,2.674-1.053,3.56-1.724c1.935-1.555,3.297-3.07,4.112-4.553l9.009,10.784c-6.381,6.738-14.346,10.117-23.907,10.117
	c-4.446,0-8.817-1.228-13.122-3.676c-4.291-2.44-7.596-5.892-9.89-10.329c-11.489,0-21.157-3.844-29.018-11.512
	c-7.853-7.672-11.783-17.216-11.783-28.622c0-11.416,3.931-20.967,11.783-28.634c7.86-7.669,17.528-11.507,29.018-11.507
	c11.493,0,21.158,3.837,29.016,11.507C97.817,36.034,101.748,45.585,101.748,57.001z"/>
<g id="Laag_2_2_">
	<polygon fill="#FFFFFF" points="61.628,37.481 67.899,50.212 81.953,52.251 71.79,62.165 74.188,76.152 61.628,69.547 
		49.056,76.152 51.46,62.165 41.291,52.251 55.344,50.212 	"/>
</g>
</svg>
